<svg preserveAspectRatio="none" width="100%" height="100%" overflow="visible" style="display: block;" viewBox="0 0 42 42" fill="none" xmlns="http://www.w3.org/2000/svg">
<g id="Group 7">
<path id="Rectangle 3" d="M0 8.2623C0 3.69916 3.69916 0 8.2623 0H33.7377C38.3008 0 42 3.69916 42 8.2623V33.7377C42 38.3008 38.3008 42 33.7377 42H8.2623C3.69916 42 0 38.3008 0 33.7377V8.2623Z" fill="var(--fill-0, #FCFCFC)"/>
<path id="Rectangle 2" d="M1.29229 9.04613C1.29229 4.7638 4.7638 1.29229 9.04613 1.29229H32.9538C37.2362 1.29229 40.7077 4.7638 40.7077 9.04613V32.9538C40.7077 37.2362 37.2362 40.7077 32.9538 40.7077H9.04613C4.7638 40.7077 1.29229 37.2362 1.29229 32.9538V9.04613Z" fill="url(#paint0_linear_0_4)"/>
<path id="Union" d="M26.4923 9.04616C30.0609 9.04616 32.9539 11.9391 32.9539 15.5077V26.4923C32.9539 29.8824 30.3429 32.6602 27.0224 32.9299L27.7846 35.2154L24.2667 32.9539H15.5077C11.9391 32.9539 9.04616 30.0609 9.04616 26.4923V15.5077C9.04616 11.9391 11.9391 9.04616 15.5077 9.04616H26.4923Z" fill="var(--fill-0, #FCFCFC)"/>
<path id="Union_2" d="M23.9077 16.8C26.4057 16.8 28.4308 18.825 28.4308 21.3231C28.4308 23.8211 26.4057 25.8461 23.9077 25.8461H18.0923C17.8796 25.8461 17.6706 25.8297 17.4657 25.8013L15.5077 26.9769L16.08 25.3735C14.5921 24.6329 13.5692 23.0979 13.5692 21.3231C13.5692 18.825 15.5943 16.8 18.0923 16.8H23.9077Z" fill="url(#paint1_linear_0_4)"/>
<g id="Vector">
<path d="M25.2 21.3231C25.2 22.0368 24.6214 22.6154 23.9077 22.6154C23.194 22.6154 22.6154 22.0368 22.6154 21.3231C22.6154 20.6093 23.194 20.0308 23.9077 20.0308C24.6214 20.0308 25.2 20.6093 25.2 21.3231Z" fill="var(--fill-0, #FCFCFC)"/>
<path d="M20.0308 21.3231C20.0308 22.0368 19.4522 22.6154 18.7384 22.6154C18.0247 22.6154 17.4461 22.0368 17.4461 21.3231C17.4461 20.6093 18.0247 20.0308 18.7384 20.0308C19.4522 20.0308 20.0308 20.6093 20.0308 21.3231Z" fill="var(--fill-0, #FCFCFC)"/>
</g>
</g>
<defs>
<linearGradient id="paint0_linear_0_4" x1="21" y1="1.29229" x2="21" y2="40.7077" gradientUnits="userSpaceOnUse">
<stop stop-color="#8022FE"/>
<stop offset="1" stop-color="#9612FA"/>
</linearGradient>
<linearGradient id="paint1_linear_0_4" x1="21" y1="16.8" x2="21" y2="26.9769" gradientUnits="userSpaceOnUse">
<stop stop-color="#9612FA"/>
<stop offset="1" stop-color="#8022FE"/>
</linearGradient>
</defs>
</svg>
