<svg preserveAspectRatio="none" width="100%" height="100%" overflow="visible" style="display: block;" viewBox="0 0 172.051 171.147" fill="none" xmlns="http://www.w3.org/2000/svg">
<path id="Star 1" d="M75.8168 2.27955C82.2834 -0.759852 89.768 -0.75985 96.2347 2.27955L101.334 4.67612C104.206 6.02613 107.317 6.79305 110.488 6.93249L116.117 7.18002C123.255 7.49395 129.882 10.9722 134.196 16.6687L137.597 21.1603C139.513 23.6905 141.911 25.8156 144.654 27.4125L149.523 30.2474C155.698 33.8428 159.95 40.0025 161.122 47.051L162.046 52.6087C162.566 55.7395 163.703 58.7359 165.389 61.4245L168.383 66.1973C172.18 72.2504 173.082 79.6805 170.844 86.4663L169.08 91.8169C168.086 94.831 167.699 98.0123 167.943 101.177L168.376 106.794C168.925 113.918 166.271 120.916 161.136 125.885L157.087 129.803C154.806 132.01 152.985 134.647 151.731 137.562L149.503 142.737C146.678 149.3 141.076 154.264 134.22 156.277L128.814 157.864C125.769 158.758 122.932 160.248 120.466 162.246L116.089 165.793C110.537 170.292 103.27 172.083 96.2642 170.679L90.74 169.573C87.6281 168.949 84.4234 168.949 81.3115 169.573L75.7872 170.679C68.7812 172.083 61.514 170.292 55.9627 165.793L51.5855 162.246C49.1197 160.248 46.2822 158.758 43.237 157.864L37.8312 156.277C30.9754 154.264 25.3731 149.3 22.5482 142.737L20.3209 137.562C19.0661 134.647 17.2457 132.01 14.9649 129.803L10.916 125.885C5.78097 120.916 3.12689 113.918 3.67569 106.794L4.10841 101.177C4.35217 98.0123 3.9659 94.831 2.97194 91.8169L1.20746 86.4663C-1.03032 79.6805 -0.128147 72.2504 3.66856 66.1973L6.66225 61.4245C8.34864 58.7359 9.48502 55.7395 10.0056 52.6087L10.9298 47.051C12.1019 40.0025 16.3536 33.8428 22.5285 30.2474L27.3973 27.4125C30.14 25.8156 32.5387 23.6905 34.4546 21.1603L37.8557 16.6687C42.1692 10.9722 48.7965 7.49395 55.9348 7.18002L61.5634 6.93249C64.7341 6.79305 67.8456 6.02613 70.7179 4.67611L75.8168 2.27955Z" fill="url(#paint0_linear_0_12)"/>
<defs>
<linearGradient id="paint0_linear_0_12" x1="86.0257" y1="-2.51879" x2="86.0257" y2="175.481" gradientUnits="userSpaceOnUse">
<stop stop-color="#8122FE"/>
<stop offset="1" stop-color="#9512FA"/>
</linearGradient>
</defs>
</svg>
