<svg width="65" height="65" viewBox="0 0 65 65" fill="none" xmlns="http://www.w3.org/2000/svg">
<path d="M0 12.7869C0 5.72488 5.72488 0 12.7869 0H52.2131C59.2751 0 65 5.72488 65 12.7869V52.2131C65 59.2751 59.2751 65 52.2131 65H12.7869C5.72488 65 0 59.2751 0 52.2131V12.7869Z" fill="#FCFCFC"/>
<path d="M2 14C2 7.37258 7.37258 2 14 2H51C57.6274 2 63 7.37258 63 14V51C63 57.6274 57.6274 63 51 63H14C7.37258 63 2 57.6274 2 51V14Z" fill="url(#paint0_linear_8_211)"/>
<path d="M41 14C46.5228 14 51 18.4772 51 24V41C51 46.2465 46.9593 50.5455 41.8203 50.9629L43 54.5L37.5557 51H24C18.4772 51 14 46.5228 14 41V24C14 18.4772 18.4772 14 24 14H41Z" fill="#FCFCFC"/>
<path d="M37 26C40.866 26 44 29.134 44 33C44 36.866 40.866 40 37 40H28C27.6708 40 27.3473 39.9746 27.0303 39.9307L24 41.75L24.8857 39.2686C22.583 38.1223 21 35.7468 21 33C21 29.134 24.134 26 28 26H37Z" fill="url(#paint1_linear_8_211)"/>
<path d="M39 33C39 34.1046 38.1046 35 37 35C35.8954 35 35 34.1046 35 33C35 31.8954 35.8954 31 37 31C38.1046 31 39 31.8954 39 33Z" fill="#FCFCFC"/>
<path d="M31 33C31 34.1046 30.1046 35 29 35C27.8954 35 27 34.1046 27 33C27 31.8954 27.8954 31 29 31C30.1046 31 31 31.8954 31 33Z" fill="#FCFCFC"/>
<defs>
<linearGradient id="paint0_linear_8_211" x1="32.5" y1="2" x2="32.5" y2="63" gradientUnits="userSpaceOnUse">
<stop stop-color="#8022FE"/>
<stop offset="1" stop-color="#9612FA"/>
</linearGradient>
<linearGradient id="paint1_linear_8_211" x1="32.5" y1="26" x2="32.5" y2="41.75" gradientUnits="userSpaceOnUse">
<stop stop-color="#9612FA"/>
<stop offset="1" stop-color="#8022FE"/>
</linearGradient>
</defs>
</svg>
