<svg width="311" height="65" viewBox="0 0 311 65" fill="none" xmlns="http://www.w3.org/2000/svg">
<path d="M76.8937 22.3734V17.606H101.941V22.3734H92.2381V49H86.597V22.3734H76.8937ZM104.08 49V25.4545H109.46V29.3788H109.706C110.135 28.0196 110.871 26.9721 111.913 26.2363C112.966 25.4903 114.166 25.1173 115.515 25.1173C115.822 25.1173 116.164 25.1326 116.542 25.1633C116.931 25.1837 117.253 25.2195 117.508 25.2706V30.3752C117.273 30.2934 116.9 30.2219 116.389 30.1606C115.888 30.089 115.403 30.0533 114.933 30.0533C113.921 30.0533 113.012 30.273 112.204 30.7124C111.407 31.1416 110.779 31.7395 110.319 32.5059C109.859 33.2724 109.629 34.1563 109.629 35.1578V49H104.08ZM125.36 57.8295C124.604 57.8295 123.904 57.7682 123.26 57.6456C122.627 57.5332 122.121 57.4003 121.743 57.247L123.03 52.9242C123.838 53.1593 124.558 53.2717 125.192 53.2615C125.825 53.2513 126.382 53.052 126.863 52.6636C127.353 52.2855 127.767 51.6519 128.104 50.7628L128.58 49.4905L120.041 25.4545H125.928L131.354 43.2363H131.599L137.041 25.4545H142.943L133.516 51.8512C133.076 53.098 132.494 54.1659 131.768 55.055C131.042 55.9543 130.153 56.639 129.101 57.1091C128.058 57.5894 126.812 57.8295 125.36 57.8295ZM164.089 26.2363C163.946 24.8976 163.343 23.8552 162.281 23.1092C161.228 22.3632 159.859 21.9902 158.172 21.9902C156.987 21.9902 155.97 22.169 155.122 22.5267C154.274 22.8844 153.625 23.3698 153.175 23.9829C152.725 24.5961 152.495 25.2961 152.485 26.083C152.485 26.7371 152.633 27.3042 152.93 27.7846C153.236 28.2649 153.65 28.6736 154.171 29.0109C154.693 29.3379 155.27 29.6138 155.904 29.8387C156.537 30.0635 157.176 30.2525 157.82 30.4058L160.763 31.1416C161.948 31.4175 163.088 31.7906 164.181 32.2606C165.285 32.7307 166.271 33.3235 167.14 34.0388C168.019 34.7542 168.714 35.6177 169.225 36.6294C169.736 37.6412 169.991 38.8266 169.991 40.1858C169.991 42.0253 169.521 43.645 168.581 45.0451C167.641 46.4349 166.281 47.5233 164.503 48.3102C162.735 49.0869 160.594 49.4752 158.08 49.4752C155.638 49.4752 153.517 49.0971 151.719 48.3408C149.93 47.5846 148.53 46.4809 147.519 45.0298C146.517 43.5786 145.975 41.8107 145.894 39.7259H151.489C151.571 40.8194 151.908 41.7289 152.501 42.4545C153.093 43.1801 153.865 43.7217 154.815 44.0794C155.776 44.437 156.849 44.6159 158.034 44.6159C159.271 44.6159 160.354 44.4319 161.284 44.064C162.224 43.6859 162.96 43.1647 163.492 42.5005C164.023 41.826 164.294 41.0391 164.304 40.1398C164.294 39.3222 164.054 38.6478 163.583 38.1164C163.113 37.5747 162.454 37.1251 161.606 36.7674C160.768 36.3995 159.787 36.0725 158.663 35.7863L155.091 34.8666C152.506 34.2023 150.462 33.1957 148.96 31.8468C147.468 30.4876 146.722 28.6839 146.722 26.4356C146.722 24.5859 147.222 22.9661 148.224 21.5763C149.235 20.1864 150.61 19.1083 152.347 18.3418C154.085 17.5652 156.052 17.1768 158.249 17.1768C160.477 17.1768 162.429 17.5652 164.105 18.3418C165.791 19.1083 167.114 20.1762 168.075 21.5456C169.036 22.9048 169.531 24.4684 169.562 26.2363H164.089ZM174.816 57.8295V25.4545H180.273V29.3481H180.595C180.881 28.7758 181.285 28.1678 181.806 27.524C182.327 26.8699 183.032 26.313 183.921 25.8531C184.81 25.383 185.945 25.148 187.324 25.148C189.143 25.148 190.784 25.6129 192.245 26.5429C193.717 27.4626 194.882 28.8269 195.74 30.6358C196.609 32.4344 197.043 34.6418 197.043 37.2579C197.043 39.8434 196.619 42.0406 195.771 43.8494C194.923 45.6583 193.768 47.0379 192.306 47.9883C190.845 48.9387 189.189 49.4139 187.34 49.4139C185.991 49.4139 184.872 49.1891 183.983 48.7394C183.094 48.2898 182.378 47.7481 181.837 47.1145C181.305 46.4707 180.891 45.8626 180.595 45.2904H180.365V57.8295H174.816ZM180.258 37.2273C180.258 38.75 180.472 40.0836 180.902 41.2282C181.341 42.3727 181.969 43.2669 182.787 43.9107C183.615 44.5443 184.616 44.8611 185.791 44.8611C187.018 44.8611 188.045 44.5341 188.873 43.8801C189.7 43.2158 190.324 42.3114 190.743 41.1668C191.172 40.0121 191.387 38.6989 191.387 37.2273C191.387 35.7659 191.177 34.468 190.758 33.3337C190.339 32.1993 189.716 31.3102 188.888 30.6664C188.06 30.0226 187.028 29.7007 185.791 29.7007C184.606 29.7007 183.599 30.0124 182.772 30.6358C181.944 31.2591 181.315 32.1329 180.886 33.257C180.467 34.3812 180.258 35.7046 180.258 37.2273ZM212.219 49.4599C209.858 49.4599 207.819 48.9693 206.103 47.9883C204.396 46.997 203.083 45.5969 202.163 43.7881C201.243 41.9691 200.783 39.8281 200.783 37.3652C200.783 34.9432 201.243 32.8176 202.163 30.9883C203.093 29.1488 204.391 27.7181 206.057 26.6962C207.722 25.664 209.679 25.148 211.928 25.148C213.379 25.148 214.748 25.383 216.036 25.8531C217.334 26.313 218.478 27.0283 219.469 27.9992C220.471 28.97 221.258 30.2065 221.83 31.7088C222.402 33.2008 222.689 34.979 222.689 37.0433V38.7448H203.389V35.0046H217.369C217.359 33.9417 217.129 32.9964 216.68 32.1687C216.23 31.3307 215.601 30.6715 214.794 30.1912C213.997 29.7109 213.067 29.4708 212.004 29.4708C210.87 29.4708 209.873 29.7467 209.015 30.2985C208.157 30.8402 207.487 31.5555 207.007 32.4446C206.537 33.3235 206.297 34.2892 206.286 35.3418V38.6069C206.286 39.9763 206.537 41.1515 207.038 42.1326C207.538 43.1034 208.238 43.8494 209.138 44.3706C210.037 44.8816 211.09 45.1371 212.295 45.1371C213.103 45.1371 213.833 45.0247 214.488 44.7998C215.142 44.5648 215.709 44.2224 216.189 43.7728C216.669 43.3231 217.032 42.7662 217.277 42.1019L222.459 42.6844C222.132 44.0538 221.508 45.2495 220.589 46.2714C219.679 47.2831 218.514 48.07 217.093 48.6321C215.673 49.1839 214.048 49.4599 212.219 49.4599ZM237.807 49.4599C235.446 49.4599 233.407 48.9693 231.691 47.9883C229.984 46.997 228.671 45.5969 227.751 43.7881C226.831 41.9691 226.371 39.8281 226.371 37.3652C226.371 34.9432 226.831 32.8176 227.751 30.9883C228.681 29.1488 229.979 27.7181 231.645 26.6962C233.31 25.664 235.267 25.148 237.516 25.148C238.967 25.148 240.336 25.383 241.624 25.8531C242.922 26.313 244.066 27.0283 245.058 27.9992C246.059 28.97 246.846 30.2065 247.418 31.7088C247.991 33.2008 248.277 34.979 248.277 37.0433V38.7448H228.977V35.0046H242.957C242.947 33.9417 242.717 32.9964 242.268 32.1687C241.818 31.3307 241.19 30.6715 240.382 30.1912C239.585 29.7109 238.655 29.4708 237.592 29.4708C236.458 29.4708 235.462 29.7467 234.603 30.2985C233.745 30.8402 233.075 31.5555 232.595 32.4446C232.125 33.3235 231.885 34.2892 231.875 35.3418V38.6069C231.875 39.9763 232.125 41.1515 232.626 42.1326C233.126 43.1034 233.826 43.8494 234.726 44.3706C235.625 44.8816 236.678 45.1371 237.884 45.1371C238.691 45.1371 239.422 45.0247 240.076 44.7998C240.73 44.5648 241.297 44.2224 241.777 43.7728C242.257 43.3231 242.62 42.7662 242.865 42.1019L248.047 42.6844C247.72 44.0538 247.096 45.2495 246.177 46.2714C245.267 47.2831 244.102 48.07 242.682 48.6321C241.261 49.1839 239.636 49.4599 237.807 49.4599ZM258.03 41.6114L258.014 34.9126H258.904L267.365 25.4545H273.849L263.441 37.0433H262.291L258.03 41.6114ZM252.971 49V17.606H258.52V49H252.971ZM267.748 49L260.084 38.285L263.824 34.3761L274.386 49H267.748ZM283.097 17.606V49H277.548V17.606H283.097ZM292.252 57.8295C291.496 57.8295 290.796 57.7682 290.152 57.6456C289.518 57.5332 289.012 57.4003 288.634 57.247L289.922 52.9242C290.729 53.1593 291.45 53.2717 292.083 53.2615C292.717 53.2513 293.274 53.052 293.754 52.6636C294.245 52.2855 294.659 51.6519 294.996 50.7628L295.471 49.4905L286.933 25.4545H292.819L298.246 43.2363H298.491L303.933 25.4545H309.834L300.407 51.8512C299.968 53.098 299.385 54.1659 298.659 55.055C297.934 55.9543 297.045 56.639 295.992 57.1091C294.95 57.5894 293.703 57.8295 292.252 57.8295Z" fill="url(#paint0_linear_17_98)"/>
<rect x="1" y="1" width="63" height="63" rx="13" fill="url(#paint1_linear_17_98)" stroke="#FCFCFC" stroke-width="2"/>
<rect x="14" y="14" width="37" height="37" rx="10" fill="#FCFCFC"/>
<rect x="21" y="26" width="23" height="14" rx="7" fill="url(#paint2_linear_17_98)"/>
<circle cx="37" cy="33" r="2" fill="#FCFCFC"/>
<circle cx="29" cy="33" r="2" fill="#FCFCFC"/>
<path d="M24 41.75L29 38.75H25.0714L24 41.75Z" fill="#9513FA"/>
<path d="M43 54.5L36 50H41.5L43 54.5Z" fill="#FCFCFC"/>
<defs>
<linearGradient id="paint0_linear_17_98" x1="75" y1="33" x2="311" y2="33" gradientUnits="userSpaceOnUse">
<stop stop-color="#8021FE"/>
<stop offset="1" stop-color="#9512FA"/>
</linearGradient>
<linearGradient id="paint1_linear_17_98" x1="32.5" y1="2" x2="32.5" y2="63" gradientUnits="userSpaceOnUse">
<stop stop-color="#8022FE"/>
<stop offset="1" stop-color="#9612FA"/>
</linearGradient>
<linearGradient id="paint2_linear_17_98" x1="32.5" y1="26" x2="32.5" y2="40" gradientUnits="userSpaceOnUse">
<stop stop-color="#8021FE"/>
<stop offset="1" stop-color="#9612FA"/>
</linearGradient>
</defs>
</svg>
